<?xml version="1.0" encoding="iso-8859-1"?>
<!-- Uploaded to: SVG Repo, www.svgrepo.com, Generator: SVG Repo Mixer Tools -->
<!DOCTYPE svg PUBLIC "-//W3C//DTD SVG 1.1//EN" "http://www.w3.org/Graphics/SVG/1.1/DTD/svg11.dtd">
<svg height="800px" width="800px" version="1.1" id="Capa_1" xmlns="http://www.w3.org/2000/svg" xmlns:xlink="http://www.w3.org/1999/xlink" 
	 viewBox="0 0 353.68 353.68" xml:space="preserve">
<g>
	<path style="fill:#EFE373;" d="M340.25,183.533c0,93.96-76.17,170.13-170.13,170.13c-3.26,0-6.49-0.09-9.7-0.28
		c-23.71-1.33-46.13-7.51-66.27-17.58c-28.05-14.03-51.68-35.57-68.25-62C9.49,247.642,0,216.693,0,183.533
		c0-93.96,76.16-170.12,170.12-170.12S340.25,89.573,340.25,183.533z"/>
	<path style="fill:#D67B21;" d="M260.906,130.987c0,0-23.226,10.815-21.226,38.815c0,0-10.5-3.5-10.5-11c0,0-11,22,1,44.5
		c0,0-15-4.5-17.5-16c0,0-5,19.5,6,38c0,0-17.5,4-25.5-10s-1.5-83-1.5-83L260.906,130.987z"/>
	<path style="fill:#F7931E;" d="M200.21,146.142v160.21c0,17.904-10.566,34.122-26.944,41.356l-12.846,5.674
		c-23.71-1.33-46.13-7.51-66.27-17.58c-28.05-14.03-51.68-35.57-68.25-62h30.785c27.834,0,51.419-20.497,55.299-48.06l26.736-189.94
		L200.21,146.142z"/>
	<path style="fill:#D67B21;" d="M200.213,161.803c0,0-29.533,11.5-43.533-10.5s-9.866-70.718-9.866-70.718l53.399,65.554V161.803z"
		/>
	<path style="fill:#F7931E;" d="M336.63,105.982l-134.38,44.37c-20.96,6.92-43.22-6.15-47.38-27.83l-16.15-84.11h181.49
		c9.11,0,17.05,6.21,19.24,15.05l5.05,20.34h-17.82c-3.31,0-6,2.69-6,6c0,1.66,0.67,3.16,1.76,4.24c1.08,1.09,2.58,1.76,4.24,1.76
		h20.8l0.09,0.36C349.66,94.613,344.89,103.253,336.63,105.982z"/>
	<path style="fill:#F7931E;" d="M155.437,0.018L155.437,0.018c-9.235,0-16.721,7.486-16.721,16.721v21.673h33.441V16.738
		C172.158,7.504,164.672,0.018,155.437,0.018z"/>
	<path style="fill:#D67B21;" d="M160.937,12.647L160.937,12.647c-6.197,0-11.221,5.024-11.221,11.221v14.544h22.441V23.867
		C172.158,17.67,167.134,12.647,160.937,12.647z"/>
	<path style="fill:#4D4D4D;" d="M323.428,56.279h5.504c1.92,0,3.476-1.556,3.476-3.476v0c0-1.92-1.556-3.476-3.476-3.476h-5.504
		c-1.92,0-3.476,1.556-3.476,3.476v0C319.952,54.722,321.508,56.279,323.428,56.279z"/>
	<path style="fill:#F7931E;" d="M316.68,97.803h31c3.314,0,6-2.686,6-6v0c0-3.314-2.686-6-6-6h-31c-3.314,0-6,2.686-6,6v0
		C310.68,95.116,313.366,97.803,316.68,97.803z"/>
	<path style="fill:#F7931E;" d="M313.18,73.803h31c3.314,0,6-2.686,6-6v0c0-3.314-2.686-6-6-6h-31c-3.314,0-6,2.686-6,6v0
		C307.18,71.116,309.866,73.803,313.18,73.803z"/>
	<circle style="fill:#D67B21;" cx="214.68" cy="56.303" r="15"/>
	<path style="fill:#4D4D4D;" d="M225.68,56.803c0,6.075-4.925,11-11,11s-11-4.925-11-11"/>
</g>
</svg>