<?xml version="1.0" encoding="iso-8859-1"?>
<!-- Uploaded to: SVG Repo, www.svgrepo.com, Generator: SVG Repo Mixer Tools -->
<!DOCTYPE svg PUBLIC "-//W3C//DTD SVG 1.1//EN" "http://www.w3.org/Graphics/SVG/1.1/DTD/svg11.dtd">
<svg height="800px" width="800px" version="1.1" id="Capa_1" xmlns="http://www.w3.org/2000/svg" xmlns:xlink="http://www.w3.org/1999/xlink" 
	 viewBox="0 0 340.25 340.25" xml:space="preserve">
<g>
	<path style="fill:#0071BC;" d="M340.25,170.12c0,91.82-72.74,166.65-163.72,170.01c-2.13,0.08-4.26,0.12-6.4,0.12
		c-77.61,0-143.09-51.97-163.52-123.02C2.3,202.27,0,186.47,0,170.12C0,76.16,76.17,0,170.13,0C264.08,0,340.25,76.16,340.25,170.12
		z"/>
	<path style="fill:#F45D5D;" d="M196.001,37.189l3.055,10.651c1.901,6.629,9.117,10.159,15.518,7.593l10.285-4.124
		c10.164-4.076,19.818,6.865,14.51,16.442l-5.371,9.692c-3.343,6.032-0.737,13.631,5.604,16.342l10.189,4.356
		c10.069,4.305,9.159,18.868-1.367,21.886l-10.651,3.055c-6.629,1.901-10.159,9.117-7.593,15.518l4.124,10.285
		c4.076,10.164-6.865,19.818-16.442,14.51l-9.692-5.371c-6.032-3.343-13.631-0.737-16.342,5.604l-4.356,10.189
		c-4.305,10.069-18.868,9.159-21.886-1.367l-3.055-10.651c-1.901-6.629-9.117-10.159-15.518-7.593l-10.285,4.124
		c-10.164,4.076-19.818-6.865-14.51-16.442l5.371-9.692c3.343-6.032,0.737-13.631-5.604-16.342l-10.189-4.356
		c-10.069-4.305-9.159-18.868,1.367-21.886l10.651-3.055c6.629-1.901,10.16-9.117,7.593-15.518l-4.124-10.285
		c-4.076-10.164,6.865-19.818,16.442-14.51l9.692,5.371c6.032,3.343,13.631,0.737,16.342-5.604l4.356-10.189
		C178.419,25.754,192.982,26.663,196.001,37.189z"/>
	<path style="fill:#F2F2F2;" d="M243.29,165.72c-1.63,4.07-3.78,7.97-6.47,11.65l-3.96,5.39l-29.72,40.58l-26.61,116.79
		c-2.13,0.08-4.26,0.12-6.4,0.12c-77.61,0-143.09-51.97-163.52-123.02l155.88-114.18c21.17-15.5,50.48-13.25,69.03,5.29
		c5.65,5.65,9.78,12.29,12.36,19.39C248.32,139.93,248.2,153.49,243.29,165.72z"/>
	<path style="fill:#D3CC8D;" d="M299.422,144.422l-52.605,30.306l-13.955,8.034l3.957-5.396c2.691-3.674,4.844-7.576,6.473-11.64
		c1.534-3.822,2.597-7.778,3.203-11.775L299.422,144.422z"/>
	<path style="fill:#EFD956;" d="M246.494,153.95c1.346-8.801,0.444-17.831-2.611-26.215l55.538,16.687L246.494,153.95z"/>
	<path style="fill:#F45D5D;" d="M243.292,165.725c-1.628,4.064-3.781,7.967-6.473,11.64l-3.957,5.396l0,0
		c-12.535,17.108-39.135,13.048-45.994-7.021l-6.287-18.395c-4.962-14.519,5.829-29.611,21.172-29.611h42.131
		C248.325,139.927,248.204,153.492,243.292,165.725z"/>
	<path style="fill:#F45D5D;" d="M230.009,245.796c-13.538,0-24.613-9.797-26.874-22.46l29.727-40.574l13.955-8.034l9.609,36.887
		C260.934,228.907,247.881,245.796,230.009,245.796z"/>
	<circle style="fill:#FFFFFF;" cx="203.057" cy="150.493" r="14.13"/>
	<circle style="fill:#4D4D4D;" cx="203.057" cy="150.493" r="8.951"/>
</g>
</svg>