<?xml version="1.0" encoding="iso-8859-1"?>
<!-- Uploaded to: SVG Repo, www.svgrepo.com, Generator: SVG Repo Mixer Tools -->
<!DOCTYPE svg PUBLIC "-//W3C//DTD SVG 1.1//EN" "http://www.w3.org/Graphics/SVG/1.1/DTD/svg11.dtd">
<svg height="800px" width="800px" version="1.1" id="Capa_1" xmlns="http://www.w3.org/2000/svg" xmlns:xlink="http://www.w3.org/1999/xlink" 
	 viewBox="0 0 354.52 354.52" xml:space="preserve">
<g>
	<path style="fill:#C1272D;" d="M341.695,184.4c0,93.95-76.16,170.12-170.12,170.12c-29.24,0-56.75-7.37-80.77-20.37
		c-10.82-5.84-20.93-12.83-30.18-20.79c-36.24-31.19-59.18-77.4-59.18-128.96c0-18.09,2.82-35.53,8.06-51.88
		c3.52-11.04,8.15-21.6,13.76-31.53c1.42-2.53,2.91-5.02,4.45-7.46c9.78-15.45,22-29.23,36.09-40.78
		c29.35-24.05,66.87-38.49,107.77-38.49c63.65,0,119.14,34.96,148.3,86.73c10.64,18.86,17.77,39.96,20.53,62.4
		C341.255,170.28,341.695,177.29,341.695,184.4z"/>
	<path style="fill:#CCCCCC;" d="M297.949,100.99h-33.196V30.006c2.457,2.997,4.797,6.084,7.035,9.26v0.013
		c10.817,15.357,18.984,32.72,23.846,51.421C296.522,94.083,297.293,97.517,297.949,100.99z"/>
	<path style="fill:#999999;" d="M286.835,179.45h45.65c-2.59,4.56-5.38,8.99-8.39,13.26v0.01c-2.96,4.21-6.11,8.26-9.45,12.14
		c-2.65,3.1-5.43,6.1-8.31,8.98c-28.89,28.89-68.78,46.75-112.85,46.75h-49.45c-2.51,27.64-17.65,51.64-39.61,66.17
		c-4.29,2.84-8.85,5.32-13.62,7.39c-10.82-5.84-20.93-12.83-30.18-20.79c-7.87-6.77-15.11-14.25-21.61-22.33
		c-23.51-29.17-37.57-66.26-37.57-106.63c0-18.09,2.82-35.53,8.06-51.88c3.52-11.04,8.15-21.6,13.76-31.53h329.81
		c0,22.38-4.61,43.69-12.93,63.02h-37.87C293.745,164.01,286.835,170.92,286.835,179.45z"/>
	<path style="fill:#999999;" d="M353.074,100.99h-36.013V0c2.457,2.997,4.797,6.084,7.035,9.26v0.013
		C342.361,35.215,353.074,66.855,353.074,100.99z"/>
	<path style="fill:#CCCCCC;" d="M352.74,90.701h-33.839c-0.63,0-1.248,0.077-1.839,0.219V0c2.457,2.997,4.797,6.084,7.035,9.26
		v0.013C340.509,32.592,350.824,60.501,352.74,90.701z"/>
	<path style="fill:#4D4D4D;" d="M238.605,156.081h-27.01c-6.393,0-11.576-5.183-11.576-11.576v0h27.01
		C233.423,144.506,238.605,149.688,238.605,156.081L238.605,156.081z"/>
	<path style="fill:#999999;" d="M305.267,100.99L305.267,100.99l-49.723,0v0c0-5.683,4.607-10.289,10.289-10.289h29.145
		C300.661,90.701,305.267,95.307,305.267,100.99z"/>
	<path style="fill:#999999;" d="M353.074,100.99h-42.658v-2.169c0-4.371,3.531-7.92,7.902-7.943l34.422-0.178
		C352.959,94.096,353.074,97.53,353.074,100.99z"/>
	<path style="fill:#808080;" d="M134.965,100.99c-0.424,0.437-0.862,0.849-1.312,1.26c-24.45,23.113-63.035,22.688-86.971-1.26
		l-4.039-4.039L24.278,78.585c24.373-24.373,63.91-24.373,88.296,0L134.965,100.99z"/>
	<path style="fill:#666666;" d="M123.804,102.603c-0.249,0.256-0.505,0.498-0.769,0.739c-14.341,13.556-36.972,13.307-51.011-0.739
		l-2.369-2.369L58.881,89.462c14.296-14.296,37.485-14.296,51.788,0L123.804,102.603z"/>
</g>
</svg>