<?xml version="1.0" encoding="iso-8859-1"?>
<!-- Uploaded to: SVG Repo, www.svgrepo.com, Generator: SVG Repo Mixer Tools -->
<!DOCTYPE svg PUBLIC "-//W3C//DTD SVG 1.1//EN" "http://www.w3.org/Graphics/SVG/1.1/DTD/svg11.dtd">
<svg height="800px" width="800px" version="1.1" id="Capa_1" xmlns="http://www.w3.org/2000/svg" xmlns:xlink="http://www.w3.org/1999/xlink" 
	 viewBox="0 0 457.184 457.184" xml:space="preserve">
<g>
	<circle style="fill:#B4D87D;" cx="227.439" cy="170.125" r="170.125"/>
	<path style="fill:#878693;" d="M233.134,60.18h-106.51h-29c-5.11,6.02-9.8,12.4-14.04,19.09c-1.54,2.44-3.03,4.93-4.45,7.46
		c-5.61,9.93-10.24,20.49-13.76,31.53c-5.24,16.35-8.06,33.79-8.06,51.88c0,51.56,22.94,97.77,59.18,128.96
		c9.25,7.96,19.36,14.95,30.18,20.79c22.47,12.16,47.99,19.39,75.12,20.27c1.87,0.07,3.76,0.1,5.65,0.1c1.9,0,3.8-0.03,5.69-0.1
		v-1.49l33.535-115.329L233.134,60.18z"/>
	<path style="fill:#878693;" d="M323.591,60.185H181.586v76.203c0,74.175,60.13,134.305,134.305,134.305h31.116l12.062,152.836
		c0.372,4.708-3.349,8.733-8.071,8.733H330.85v24.921h26.129c23.688,0,42.891-19.203,42.891-42.891v-143.6V136.464
		C399.87,94.336,365.719,60.185,323.591,60.185z"/>
	<path style="fill:#9898A5;" d="M106.413,187.784L106.413,187.784c0-46.426,37.636-84.062,84.062-84.062h84.062v84.062
		c0,46.426-37.636,84.062-84.062,84.062h0C144.049,271.846,106.413,234.21,106.413,187.784z"/>
	<path style="fill:#737382;" d="M330.716,457.112l0.134,0.072v-24.921h-14.925v0C315.924,442.632,321.601,452.169,330.716,457.112z"
		/>
	<path style="fill:#878693;" d="M330.716,432.336l0.134-0.072v24.921h-14.925v0C315.924,446.815,321.601,437.279,330.716,432.336z"
		/>
	<path style="fill:#4D4D4D;" d="M352.39,197.923h-8.809c-7.029,0-12.726-5.698-12.726-12.726v-8.809h8.809
		c7.029,0,12.726,5.698,12.726,12.726V197.923z"/>
</g>
</svg>