<?xml version="1.0" encoding="iso-8859-1"?>
<!-- Uploaded to: SVG Repo, www.svgrepo.com, Generator: SVG Repo Mixer Tools -->
<!DOCTYPE svg PUBLIC "-//W3C//DTD SVG 1.1//EN" "http://www.w3.org/Graphics/SVG/1.1/DTD/svg11.dtd">
<svg height="800px" width="800px" version="1.1" id="Capa_1" xmlns="http://www.w3.org/2000/svg" xmlns:xlink="http://www.w3.org/1999/xlink" 
	 viewBox="0 0 354.686 354.686" xml:space="preserve">
<g>
	<path style="fill:#EFE373;" d="M347.498,184.536c0,83.32-59.89,152.65-138.97,167.29c-4.78,0.89-9.63,1.57-14.54,2.05
		c-5.47,0.54-11.02,0.81-16.64,0.81c-16.38,0-32.21-2.31-47.19-6.63h-0.01c-21.91-6.32-42-16.91-59.31-30.83
		c-11.53-9.26-21.82-19.99-30.59-31.91c-3.86-5.22-7.42-10.68-10.66-16.34c-14.25-24.88-22.4-53.71-22.4-84.44
		c0-11.84,1.21-23.39,3.51-34.54v-0.01c10.35-50.16,42.76-92.25,86.66-115.67c23.84-12.729,51.07-19.94,79.99-19.94
		c25.41,0,49.53,5.57,71.19,15.56C306.958,56.886,347.498,115.976,347.498,184.536z"/>
	<path style="fill:#C99A4B;" d="M320.318,162.256l-7.3,10.84l-18.6,27.65l-37.06-8.45c-1.05,4.62,1.84,9.22,6.46,10.29l25.45,5.81
		l-1.81,2.68c-4.38,6.52-12.23,9.84-19.97,8.43l-59.96-10.91l-43.29,90.27c-8.71,18.16-20.22,34.74-34.08,49.19h-0.01
		c-21.91-6.32-42-16.91-59.31-30.83c-16.59-13.32-30.62-29.69-41.25-48.25c-14.25-24.88-22.4-53.71-22.4-84.44
		c0-11.84,1.21-23.4,3.51-34.55l106.24-66.48v-0.02l74.72-46.76l55.11,47.55c5.89,5.08,9.62,12.2,10.47,19.93
		c1.15,10.65,7.75,19.91,17.43,24.47l29.77,14l12.05,5.68C321.748,150.826,323.568,157.436,320.318,162.256z"/>
	<path style="fill:#AA8043;" d="M192.877,3.476c-1.65-4.606-8.133-4.636-9.918-0.08c-11.133,28.414-44.755,66.792-44.755,66.792
		s32.964,16.782,46.184,12.155C197.608,77.716,197.048,15.119,192.877,3.476z"/>
	<polygon style="fill:#AA8043;" points="247.184,125.805 211.985,132.25 240.243,95.563 	"/>
	<path style="fill:#AA8043;" d="M320.318,162.253l-7.298,10.848l-18.601,27.643l-37.063-8.448
		c-1.051,4.621,1.844,9.222,6.465,10.292l25.442,5.811l-1.804,2.677c-4.383,6.524-12.235,9.836-19.969,8.428l-59.967-10.907v0
		c0.407-25.06,13.763-48.122,35.297-60.947l31.849-18.969l29.765,13.999l12.057,5.672
		C321.746,150.831,323.571,157.434,320.318,162.253z"/>
	<polygon style="fill:#4D4D4D;" points="223.387,120.021 239.913,105.479 245.201,119.36 	"/>
	<path style="fill:#4D4D4D;" d="M320.318,162.253l-7.298,10.848c-6.603-4.225-10.966-11.601-10.966-20.029
		c0-3.728,0.853-7.258,2.38-10.392l12.057,5.672C321.746,150.831,323.571,157.434,320.318,162.253z"/>
	<path style="fill:#AA8043;" d="M116.938,83.506l-9.13,45.95c-11.2,56.33-34.29,109.44-67.56,155.86
		c-3.86-5.22-7.42-10.68-10.66-16.34c-14.25-24.88-22.4-53.71-22.4-84.44c0-11.84,1.21-23.39,3.51-34.54v-0.01L116.938,83.506z"/>
</g>
</svg>