<?xml version="1.0" encoding="iso-8859-1"?>
<!-- Uploaded to: SVG Repo, www.svgrepo.com, Generator: SVG Repo Mixer Tools -->
<!DOCTYPE svg PUBLIC "-//W3C//DTD SVG 1.1//EN" "http://www.w3.org/Graphics/SVG/1.1/DTD/svg11.dtd">
<svg height="800px" width="800px" version="1.1" id="Capa_1" xmlns="http://www.w3.org/2000/svg" xmlns:xlink="http://www.w3.org/1999/xlink" 
	 viewBox="0 0 368.63 368.63" xml:space="preserve">
<g>
	<path style="fill:#B4D87D;" d="M334.817,141.489c1.478,5.681,2.65,11.379,3.525,17.052c3.142,20.344,2.501,40.567-1.459,59.865
		c-2.205,10.751-5.436,21.211-9.624,31.249c-19.78,47.425-60.714,85.381-114.272,99.31c-54.323,14.128-109.354,0.346-149.89-32.437
		c-15.176-12.265-28.315-27.188-38.628-44.314c-8.265-13.701-14.714-28.804-18.947-45.082c-9.152-35.189-6.599-70.664,5.248-102.305
		c18.764-50.137,60.829-90.66,116.575-105.158C218.279-3.982,311.167,50.554,334.817,141.489z"/>
	<path style="fill:#666666;" d="M368.63,194.423l-5.95,9.63l-2.18,3.53l-1.33,2.14l-4.54,7.32l-6.25,10.1l-5.62,9.07
		c-3.76,6.09-9.22,10.7-15.5,13.44c-6.19,2.71-13.18,3.59-20.13,2.3l-53.81-10.03c-41.12-7.65-83.09-1.1-119.36,17.77
		c-5.62,2.92-11.1,6.13-16.43,9.65c-8.57,5.64-16.73,12.04-24.37,19.16l-13.87,12.93l-15.47,14.42l-0.72,0.67
		c-27.32-22.08-48.06-52.79-57.58-89.39c-9.15-35.19-6.6-70.67,5.25-102.31l43.07-6.47l24.66-3.71l55.96-8.42l20.69-3.11l54.14-8.14
		l80.05,22.32c12.09,3.37,22.88,10.31,30.98,19.9l18.02,21.35l18.67,22.12l1.64,1.94L368.63,194.423z"/>
	<path style="fill:#666666;" d="M241.19,117.752l-21.2,11.41l-11.46,6.16l-18.98-35.28c-4.85-9.02-1.48-20.26,7.54-25.11
		c7.8-4.2,17.28-2.24,22.82,4.22c0.87,1,1.64,2.11,2.29,3.32L241.19,117.752z"/>
	<path style="fill:#4D4D4D;" d="M232.396,101.415l-12.406,27.748l-12.44-23.12c-4.85-9.02-1.48-20.26,7.54-25.11
		c1.55-0.83,3.17-1.43,4.82-1.78c0.87,1,1.64,2.11,2.29,3.32L232.396,101.415z"/>
	<path style="fill:#4D4D4D;" d="M317.517,174.466h-27.01c-6.393,0-11.576-5.183-11.576-11.576v0h27.01
		C312.334,162.89,317.517,168.073,317.517,174.466L317.517,174.466z"/>
	<path style="fill:#4D4D4D;" d="M353.819,190.02c-0.415,1.398-0.659,2.87-0.659,4.402c0,5.56,2.93,10.44,7.34,13.16l2.18-3.53
		l5.95-9.63L353.819,190.02z"/>
</g>
</svg>