<?xml version="1.0" encoding="iso-8859-1"?>
<!-- Uploaded to: SVG Repo, www.svgrepo.com, Generator: SVG Repo Mixer Tools -->
<!DOCTYPE svg PUBLIC "-//W3C//DTD SVG 1.1//EN" "http://www.w3.org/Graphics/SVG/1.1/DTD/svg11.dtd">
<svg height="800px" width="800px" version="1.1" id="Capa_1" xmlns="http://www.w3.org/2000/svg" xmlns:xlink="http://www.w3.org/1999/xlink" 
	 viewBox="0 0 367.707 367.707" xml:space="preserve">
<g>
	<path style="fill:#755E3E;" d="M347.685,197.577c0,1.43-0.02,2.86-0.05,4.28c-0.42,16.82-3.27,33.03-8.23,48.29v0.01
		c-22.15,68.23-86.24,117.55-161.84,117.55c-2.74,0-5.46-0.06-8.16-0.19c-43.59-2.06-82.9-20.53-111.87-49.38
		c-1.12-1.11-2.22-2.24-3.32-3.39c-12.38-13.03-22.72-28.02-30.5-44.46c-10.44-22.04-16.28-46.69-16.28-72.71
		c0-56.55,27.59-106.65,70.04-137.58c18.76-13.67,40.43-23.6,63.9-28.68c11.66-2.53,23.77-3.86,36.19-3.86
		c14.56,0,28.69,1.83,42.17,5.27c18.03,4.59,34.9,12.07,50.11,21.91c6.04,3.91,11.83,8.19,17.31,12.83
		c23.57,19.86,41.67,46.02,51.7,75.89c1.39,4.12,2.62,8.31,3.69,12.57c0.55,2.18,1.06,4.37,1.51,6.58c0.5,2.33,0.94,4.68,1.33,7.05
		c0.21,1.29,0.41,2.58,0.59,3.89c0.24,1.64,0.46,3.29,0.64,4.96c0.24,2.08,0.43,4.18,0.59,6.28c0.27,3.53,0.42,7.1,0.46,10.69
		C347.685,196.107,347.685,196.837,347.685,197.577z"/>
	<path style="fill:#E8B989;" d="M167.735,145.907c-2.48,0.45-4.95,0.78-7.4,0.98c-5.84,0.47-11.6,0.24-17.2-0.63
		c26.41-15.06,41.73-45.63,35.92-77.22c-5.47-29.73-28.1-51.96-55.79-58.36c-1.73-0.41-3.48-0.75-5.25-1.02
		c6.99-3.98,14.75-6.9,23.11-8.43c39.95-7.35,78.3,19.08,85.65,59.03C234.125,100.217,207.685,138.567,167.735,145.907z"/>
	<path style="fill:#D1A074;" d="M160.335,146.887c-5.84,0.47-11.6,0.24-17.2-0.63c26.41-15.06,41.73-45.63,35.92-77.22
		c-5.47-29.73-28.1-51.96-55.79-58.36c34.23,0.66,64.41,25.28,70.84,60.25C199.755,101.657,185.435,131.437,160.335,146.887z"/>
	<path style="fill:#F2F2F2;" d="M308.815,218.047c0,0,2.55,21.3-9.45,37.3s-9,32-3,39.5c0,0-24-14-17-38.5s5-34.5-2-42
		S308.815,218.047,308.815,218.047z"/>
	<path style="fill:#E6E6E6;" d="M360.085,160.767l-0.27,1.43l-2.11,11.25l-0.43,2.31l-0.17,0.92l-1.5,8.01h-23.77
		c0,0.09,0,0.19,0.01,0.28c0.14,5.78,4.87,10.41,10.68,10.41h9.38c-1.21,2.31-2.64,4.48-4.27,6.48
		c-5.69,6.97-13.78,11.88-23.04,13.47l-15.78,2.72l-34.36,5.91l-58.362,10.052c-6.581,1.134-11.911,5.976-13.668,12.419
		l-33.02,121.089c-43.59-2.06-82.9-20.53-111.87-49.38c-1.12-1.11-2.22-2.24-3.32-3.39c-12.38-13.03-22.72-28.02-30.5-44.46
		l121.78-170.61c9.14-16.59,26.59-26.89,45.53-26.89h12.64c2.78,0,5.55,0.14,8.3,0.42c8.22,0.82,16.23,2.85,23.78,6.01
		c8.47,3.54,16.37,8.48,23.33,14.7l0.25,0.2c1.81,1.62,3.64,3.21,5.5,4.77c22.14,18.71,47.14,33.72,74.03,44.47
		c4.65,1.86,9.35,3.6,14.11,5.2C358.045,150.267,361.075,155.487,360.085,160.767z"/>
	<path style="fill:#4D4D4D;" d="M359.819,162.197l-2.114,11.247h-11.809c-1.552,0-2.958-0.63-3.982-1.642
		c-1.012-1.023-1.642-2.429-1.642-3.981c0-3.104,2.519-5.624,5.624-5.624H359.819z"/>
	<path style="fill:#CCCCCC;" d="M191.37,71.678c0,0,60.71,8.104,106.616-41.626c0,0-4.568,34.698-25.913,60.511
		c-17.189,20.788-49.298,20.197-66.194-0.829L191.37,71.678z"/>
	<path style="fill:#4D4D4D;" d="M258.291,123.395h-13.057v1.247c0,5.523,4.477,10,10,10h13.056v-1.247
		C268.291,127.872,263.814,123.395,258.291,123.395z"/>
	<polygon style="fill:#F45D5D;" points="194.865,319.847 54.198,213.18 70.118,198.799 195.437,295.636 	"/>
</g>
</svg>