<svg id="visual" viewBox="0 0 960 300" width="960" height="300" xmlns="http://www.w3.org/2000/svg" xmlns:xlink="http://www.w3.org/1999/xlink" version="1.1"><path d="M0 88L11.5 88C23 88 46 88 68.8 92.5C91.7 97 114.3 106 137.2 105.5C160 105 183 95 205.8 100C228.7 105 251.3 125 274.2 122C297 119 320 93 342.8 82C365.7 71 388.3 75 411.2 83.5C434 92 457 105 480 105C503 105 526 92 548.8 90.5C571.7 89 594.3 99 617.2 109C640 119 663 129 685.8 130.5C708.7 132 731.3 125 754.2 120C777 115 800 112 822.8 117C845.7 122 868.3 135 891.2 133C914 131 937 114 948.5 105.5L960 97L960 0L948.5 0C937 0 914 0 891.2 0C868.3 0 845.7 0 822.8 0C800 0 777 0 754.2 0C731.3 0 708.7 0 685.8 0C663 0 640 0 617.2 0C594.3 0 571.7 0 548.8 0C526 0 503 0 480 0C457 0 434 0 411.2 0C388.3 0 365.7 0 342.8 0C320 0 297 0 274.2 0C251.3 0 228.7 0 205.8 0C183 0 160 0 137.2 0C114.3 0 91.7 0 68.8 0C46 0 23 0 11.5 0L0 0Z" fill="#000000"></path><path d="M0 130L11.5 128.5C23 127 46 124 68.8 131C91.7 138 114.3 155 137.2 160C160 165 183 158 205.8 161.5C228.7 165 251.3 179 274.2 176C297 173 320 153 342.8 143C365.7 133 388.3 133 411.2 142.5C434 152 457 171 480 169.5C503 168 526 146 548.8 136.5C571.7 127 594.3 130 617.2 141.5C640 153 663 173 685.8 178C708.7 183 731.3 173 754.2 167C777 161 800 159 822.8 162.5C845.7 166 868.3 175 891.2 171.5C914 168 937 152 948.5 144L960 136L960 95L948.5 103.5C937 112 914 129 891.2 131C868.3 133 845.7 120 822.8 115C800 110 777 113 754.2 118C731.3 123 708.7 130 685.8 128.5C663 127 640 117 617.2 107C594.3 97 571.7 87 548.8 88.5C526 90 503 103 480 103C457 103 434 90 411.2 81.5C388.3 73 365.7 69 342.8 80C320 91 297 117 274.2 120C251.3 123 228.7 103 205.8 98C183 93 160 103 137.2 103.5C114.3 104 91.7 95 68.8 90.5C46 86 23 86 11.5 86L0 86Z" fill="#000a38"></path><path d="M0 193L11.5 187C23 181 46 169 68.8 174.5C91.7 180 114.3 203 137.2 214C160 225 183 224 205.8 228.5C228.7 233 251.3 243 274.2 242C297 241 320 229 342.8 219.5C365.7 210 388.3 203 411.2 205.5C434 208 457 220 480 215.5C503 211 526 190 548.8 187C571.7 184 594.3 199 617.2 211C640 223 663 232 685.8 233.5C708.7 235 731.3 229 754.2 225.5C777 222 800 221 822.8 224.5C845.7 228 868.3 236 891.2 233C914 230 937 216 948.5 209L960 202L960 134L948.5 142C937 150 914 166 891.2 169.5C868.3 173 845.7 164 822.8 160.5C800 157 777 159 754.2 165C731.3 171 708.7 181 685.8 176C663 171 640 151 617.2 139.5C594.3 128 571.7 125 548.8 134.5C526 144 503 166 480 167.5C457 169 434 150 411.2 140.5C388.3 131 365.7 131 342.8 141C320 151 297 171 274.2 174C251.3 177 228.7 163 205.8 159.5C183 156 160 163 137.2 158C114.3 153 91.7 136 68.8 129C46 122 23 125 11.5 126.5L0 128Z" fill="#001542"></path><path d="M0 301L11.5 301C23 301 46 301 68.8 301C91.7 301 114.3 301 137.2 301C160 301 183 301 205.8 301C228.7 301 251.3 301 274.2 301C297 301 320 301 342.8 301C365.7 301 388.3 301 411.2 301C434 301 457 301 480 301C503 301 526 301 548.8 301C571.7 301 594.3 301 617.2 301C640 301 663 301 685.8 301C708.7 301 731.3 301 754.2 301C777 301 800 301 822.8 301C845.7 301 868.3 301 891.2 301C914 301 937 301 948.5 301L960 301L960 200L948.5 207C937 214 914 228 891.2 231C868.3 234 845.7 226 822.8 222.5C800 219 777 220 754.2 223.5C731.3 227 708.7 233 685.8 231.5C663 230 640 221 617.2 209C594.3 197 571.7 182 548.8 185C526 188 503 209 480 213.5C457 218 434 206 411.2 203.5C388.3 201 365.7 208 342.8 217.5C320 227 297 239 274.2 240C251.3 241 228.7 231 205.8 226.5C183 222 160 223 137.2 212C114.3 201 91.7 178 68.8 172.5C46 167 23 179 11.5 185L0 191Z" fill="#001d4b"></path></svg>