<svg id="visual" viewBox="0 0 960 300" width="960" height="300" xmlns="http://www.w3.org/2000/svg" xmlns:xlink="http://www.w3.org/1999/xlink" version="1.1"><path d="M0 85L14.5 79C29 73 58 61 87.2 53C116.3 45 145.7 41 174.8 43C204 45 233 53 262 51.5C291 50 320 39 349 36.5C378 34 407 40 436.2 41C465.3 42 494.7 38 523.8 40.5C553 43 582 52 611 58C640 64 669 67 698 64.5C727 62 756 54 785.2 56.5C814.3 59 843.7 72 872.8 78C902 84 931 83 945.5 82.5L960 82L960 0L945.5 0C931 0 902 0 872.8 0C843.7 0 814.3 0 785.2 0C756 0 727 0 698 0C669 0 640 0 611 0C582 0 553 0 523.8 0C494.7 0 465.3 0 436.2 0C407 0 378 0 349 0C320 0 291 0 262 0C233 0 204 0 174.8 0C145.7 0 116.3 0 87.2 0C58 0 29 0 14.5 0L0 0Z" fill="#000000"></path><path d="M0 109L14.5 102C29 95 58 81 87.2 77.5C116.3 74 145.7 81 174.8 86C204 91 233 94 262 89C291 84 320 71 349 71C378 71 407 84 436.2 85C465.3 86 494.7 75 523.8 77.5C553 80 582 96 611 104C640 112 669 112 698 108C727 104 756 96 785.2 94.5C814.3 93 843.7 98 872.8 100.5C902 103 931 103 945.5 103L960 103L960 80L945.5 80.5C931 81 902 82 872.8 76C843.7 70 814.3 57 785.2 54.5C756 52 727 60 698 62.5C669 65 640 62 611 56C582 50 553 41 523.8 38.5C494.7 36 465.3 40 436.2 39C407 38 378 32 349 34.5C320 37 291 48 262 49.5C233 51 204 43 174.8 41C145.7 39 116.3 43 87.2 51C58 59 29 71 14.5 77L0 83Z" fill="#000636"></path><path d="M0 142L14.5 140.5C29 139 58 136 87.2 134C116.3 132 145.7 131 174.8 129.5C204 128 233 126 262 123.5C291 121 320 118 349 117C378 116 407 117 436.2 115.5C465.3 114 494.7 110 523.8 113C553 116 582 126 611 131C640 136 669 136 698 132C727 128 756 120 785.2 118C814.3 116 843.7 120 872.8 126.5C902 133 931 142 945.5 146.5L960 151L960 101L945.5 101C931 101 902 101 872.8 98.5C843.7 96 814.3 91 785.2 92.5C756 94 727 102 698 106C669 110 640 110 611 102C582 94 553 78 523.8 75.5C494.7 73 465.3 84 436.2 83C407 82 378 69 349 69C320 69 291 82 262 87C233 92 204 89 174.8 84C145.7 79 116.3 72 87.2 75.5C58 79 29 93 14.5 100L0 107Z" fill="#00113d"></path><path d="M0 256L14.5 243C29 230 58 204 87.2 194.5C116.3 185 145.7 192 174.8 192C204 192 233 185 262 191C291 197 320 216 349 223C378 230 407 225 436.2 221C465.3 217 494.7 214 523.8 215.5C553 217 582 223 611 228C640 233 669 237 698 232C727 227 756 213 785.2 207.5C814.3 202 843.7 205 872.8 209.5C902 214 931 220 945.5 223L960 226L960 149L945.5 144.5C931 140 902 131 872.8 124.5C843.7 118 814.3 114 785.2 116C756 118 727 126 698 130C669 134 640 134 611 129C582 124 553 114 523.8 111C494.7 108 465.3 112 436.2 113.5C407 115 378 114 349 115C320 116 291 119 262 121.5C233 124 204 126 174.8 127.5C145.7 129 116.3 130 87.2 132C58 134 29 137 14.5 138.5L0 140Z" fill="#001744"></path><path d="M0 301L14.5 301C29 301 58 301 87.2 301C116.3 301 145.7 301 174.8 301C204 301 233 301 262 301C291 301 320 301 349 301C378 301 407 301 436.2 301C465.3 301 494.7 301 523.8 301C553 301 582 301 611 301C640 301 669 301 698 301C727 301 756 301 785.2 301C814.3 301 843.7 301 872.8 301C902 301 931 301 945.5 301L960 301L960 224L945.5 221C931 218 902 212 872.8 207.5C843.7 203 814.3 200 785.2 205.5C756 211 727 225 698 230C669 235 640 231 611 226C582 221 553 215 523.8 213.5C494.7 212 465.3 215 436.2 219C407 223 378 228 349 221C320 214 291 195 262 189C233 183 204 190 174.8 190C145.7 190 116.3 183 87.2 192.5C58 202 29 228 14.5 241L0 254Z" fill="#001d4b"></path></svg>